STARTFONT 2.1
FONT -ibm-courier-bold-r-normal--8-80-75-75-m-46-iso8859-2
SIZE 8 75 75
FONTBOUNDINGBOX 7 10 0 -1
COMMENT $Header: courB08.bdf,v 1.1 96/01/22 23:45:30 peterlin Exp $
COMMENT 
COMMENT Copyright International Business Machines,Corp. 1991
COMMENT IBM Courier is a Trademark of the IBM Corporation.
COMMENT 
COMMENT Automatic rendering from Adobe Type 1 outline:
COMMENT Primoz Peterlin <primoz.peterlin@biofiz.mf.uni-lj.si>
COMMENT courb.pfa rendered at 9.000000 points
COMMENT Checksum eb69a063
STARTPROPERTIES 3
FONT_ASCENT 8
FONT_DESCENT 1
DEFAULT_CHAR 32
ENDPROPERTIES
CHARS 191
STARTCHAR space
ENCODING 32
SWIDTH 635 0
DWIDTH 6 0
BBX 0 0 0 1
BITMAP
ENDCHAR
STARTCHAR exclam
ENCODING 33
SWIDTH 635 0
DWIDTH 6 0
BBX 2 5 2 1
BITMAP
40
40
40
40
40
ENDCHAR
STARTCHAR quotedbl
ENCODING 34
SWIDTH 635 0
DWIDTH 6 0
BBX 3 3 1 3
BITMAP
a0
a0
a0
ENDCHAR
STARTCHAR numbersign
ENCODING 35
SWIDTH 635 0
DWIDTH 6 0
BBX 5 7 0 0
BITMAP
58
78
f8
78
f8
50
78
ENDCHAR
STARTCHAR dollar
ENCODING 36
SWIDTH 635 0
DWIDTH 6 0
BBX 5 7 0 0
BITMAP
30
78
d8
78
f8
f8
30
ENDCHAR
STARTCHAR percent
ENCODING 37
SWIDTH 635 0
DWIDTH 6 0
BBX 6 6 0 1
BITMAP
60
f0
f8
78
3c
38
ENDCHAR
STARTCHAR ampersand
ENCODING 38
SWIDTH 635 0
DWIDTH 6 0
BBX 5 5 0 1
BITMAP
70
40
68
d0
78
ENDCHAR
STARTCHAR quoteright
ENCODING 39
SWIDTH 635 0
DWIDTH 6 0
BBX 2 2 1 4
BITMAP
40
80
ENDCHAR
STARTCHAR parenleft
ENCODING 40
SWIDTH 635 0
DWIDTH 6 0
BBX 2 7 2 0
BITMAP
40
40
c0
c0
c0
40
40
ENDCHAR
STARTCHAR parenright
ENCODING 41
SWIDTH 635 0
DWIDTH 6 0
BBX 3 7 1 0
BITMAP
80
40
60
60
60
60
c0
ENDCHAR
STARTCHAR asterisk
ENCODING 42
SWIDTH 635 0
DWIDTH 6 0
BBX 4 4 1 2
BITMAP
40
f0
60
50
ENDCHAR
STARTCHAR plus
ENCODING 43
SWIDTH 635 0
DWIDTH 6 0
BBX 5 4 0 2
BITMAP
30
30
f8
30
ENDCHAR
STARTCHAR comma
ENCODING 44
SWIDTH 635 0
DWIDTH 6 0
BBX 2 2 1 0
BITMAP
40
80
ENDCHAR
STARTCHAR minus
ENCODING 45
SWIDTH 635 0
DWIDTH 6 0
BBX 4 1 1 3
BITMAP
f0
ENDCHAR
STARTCHAR period
ENCODING 46
SWIDTH 635 0
DWIDTH 6 0
BBX 2 2 2 0
BITMAP
40
40
ENDCHAR
STARTCHAR slash
ENCODING 47
SWIDTH 635 0
DWIDTH 6 0
BBX 4 8 1 0
BITMAP
10
10
20
20
40
40
80
80
ENDCHAR
STARTCHAR zero
ENCODING 48
SWIDTH 635 0
DWIDTH 6 0
BBX 5 6 0 1
BITMAP
70
58
d8
d8
d8
70
ENDCHAR
STARTCHAR one
ENCODING 49
SWIDTH 635 0
DWIDTH 6 0
BBX 4 6 1 1
BITMAP
60
a0
20
60
60
f0
ENDCHAR
STARTCHAR two
ENCODING 50
SWIDTH 635 0
DWIDTH 6 0
BBX 5 6 0 1
BITMAP
70
d8
18
10
78
78
ENDCHAR
STARTCHAR three
ENCODING 51
SWIDTH 635 0
DWIDTH 6 0
BBX 4 6 1 1
BITMAP
e0
b0
30
70
30
e0
ENDCHAR
STARTCHAR four
ENCODING 52
SWIDTH 635 0
DWIDTH 6 0
BBX 5 6 0 1
BITMAP
30
70
70
70
f8
38
ENDCHAR
STARTCHAR five
ENCODING 53
SWIDTH 635 0
DWIDTH 6 0
BBX 5 6 0 1
BITMAP
f8
80
f0
98
18
70
ENDCHAR
STARTCHAR six
ENCODING 54
SWIDTH 635 0
DWIDTH 6 0
BBX 5 6 0 1
BITMAP
38
40
f0
d8
d8
70
ENDCHAR
STARTCHAR seven
ENCODING 55
SWIDTH 635 0
DWIDTH 6 0
BBX 5 6 0 1
BITMAP
f8
d0
10
10
20
20
ENDCHAR
STARTCHAR eight
ENCODING 56
SWIDTH 635 0
DWIDTH 6 0
BBX 5 6 0 1
BITMAP
70
d8
d8
70
d8
70
ENDCHAR
STARTCHAR nine
ENCODING 57
SWIDTH 635 0
DWIDTH 6 0
BBX 5 6 0 1
BITMAP
70
d8
d8
78
10
60
ENDCHAR
STARTCHAR colon
ENCODING 58
SWIDTH 635 0
DWIDTH 6 0
BBX 2 4 2 0
BITMAP
40
40
40
40
ENDCHAR
STARTCHAR semicolon
ENCODING 59
SWIDTH 635 0
DWIDTH 6 0
BBX 3 5 1 0
BITMAP
40
40
00
40
40
ENDCHAR
STARTCHAR less
ENCODING 60
SWIDTH 635 0
DWIDTH 6 0
BBX 5 4 0 2
BITMAP
18
60
60
18
ENDCHAR
STARTCHAR equal
ENCODING 61
SWIDTH 635 0
DWIDTH 6 0
BBX 4 2 1 3
BITMAP
f0
f0
ENDCHAR
STARTCHAR greater
ENCODING 62
SWIDTH 635 0
DWIDTH 6 0
BBX 5 4 0 2
BITMAP
80
70
30
c0
ENDCHAR
STARTCHAR question
ENCODING 63
SWIDTH 635 0
DWIDTH 6 0
BBX 5 5 0 1
BITMAP
f0
18
60
00
40
ENDCHAR
STARTCHAR at
ENCODING 64
SWIDTH 635 0
DWIDTH 6 0
BBX 6 5 0 1
BITMAP
78
fc
fc
f8
78
ENDCHAR
STARTCHAR A
ENCODING 65
SWIDTH 635 0
DWIDTH 6 0
BBX 5 5 0 1
BITMAP
60
50
50
70
d8
ENDCHAR
STARTCHAR B
ENCODING 66
SWIDTH 635 0
DWIDTH 6 0
BBX 6 5 0 1
BITMAP
f8
d8
fc
cc
f8
ENDCHAR
STARTCHAR C
ENCODING 67
SWIDTH 635 0
DWIDTH 6 0
BBX 6 5 0 1
BITMAP
78
c8
c0
c4
78
ENDCHAR
STARTCHAR D
ENCODING 68
SWIDTH 635 0
DWIDTH 6 0
BBX 6 5 0 1
BITMAP
f8
cc
cc
cc
f8
ENDCHAR
STARTCHAR E
ENCODING 69
SWIDTH 635 0
DWIDTH 6 0
BBX 6 5 0 1
BITMAP
fc
70
70
7c
fc
ENDCHAR
STARTCHAR F
ENCODING 70
SWIDTH 635 0
DWIDTH 6 0
BBX 5 5 1 1
BITMAP
f8
e0
e0
c0
c0
ENDCHAR
STARTCHAR G
ENCODING 71
SWIDTH 635 0
DWIDTH 6 0
BBX 5 5 0 1
BITMAP
78
d8
d8
d8
78
ENDCHAR
STARTCHAR H
ENCODING 72
SWIDTH 635 0
DWIDTH 6 0
BBX 5 5 0 1
BITMAP
d8
d8
f8
d8
d8
ENDCHAR
STARTCHAR I
ENCODING 73
SWIDTH 635 0
DWIDTH 6 0
BBX 4 5 1 1
BITMAP
f0
60
60
60
f0
ENDCHAR
STARTCHAR J
ENCODING 74
SWIDTH 635 0
DWIDTH 6 0
BBX 5 5 0 1
BITMAP
38
18
d8
98
f0
ENDCHAR
STARTCHAR K
ENCODING 75
SWIDTH 635 0
DWIDTH 6 0
BBX 5 5 0 1
BITMAP
f8
50
60
70
e8
ENDCHAR
STARTCHAR L
ENCODING 76
SWIDTH 635 0
DWIDTH 6 0
BBX 6 5 0 1
BITMAP
e0
60
68
68
fc
ENDCHAR
STARTCHAR M
ENCODING 77
SWIDTH 635 0
DWIDTH 6 0
BBX 5 5 0 1
BITMAP
d8
b8
f8
f8
d8
ENDCHAR
STARTCHAR N
ENCODING 78
SWIDTH 635 0
DWIDTH 6 0
BBX 5 5 0 1
BITMAP
d8
f8
f8
f8
d8
ENDCHAR
STARTCHAR O
ENCODING 79
SWIDTH 635 0
DWIDTH 6 0
BBX 6 5 0 1
BITMAP
78
cc
cc
cc
70
ENDCHAR
STARTCHAR P
ENCODING 80
SWIDTH 635 0
DWIDTH 6 0
BBX 5 5 1 1
BITMAP
f0
d8
f0
c0
c0
ENDCHAR
STARTCHAR Q
ENCODING 81
SWIDTH 635 0
DWIDTH 6 0
BBX 6 6 0 0
BITMAP
78
cc
cc
cc
78
7c
ENDCHAR
STARTCHAR R
ENCODING 82
SWIDTH 635 0
DWIDTH 6 0
BBX 5 5 0 1
BITMAP
f8
d8
f0
d0
f8
ENDCHAR
STARTCHAR S
ENCODING 83
SWIDTH 635 0
DWIDTH 6 0
BBX 6 5 0 1
BITMAP
7c
d8
78
d8
f0
ENDCHAR
STARTCHAR T
ENCODING 84
SWIDTH 635 0
DWIDTH 6 0
BBX 5 5 0 1
BITMAP
f8
e8
60
60
70
ENDCHAR
STARTCHAR U
ENCODING 85
SWIDTH 635 0
DWIDTH 6 0
BBX 5 5 0 1
BITMAP
d8
d8
d8
d8
70
ENDCHAR
STARTCHAR V
ENCODING 86
SWIDTH 635 0
DWIDTH 6 0
BBX 5 5 0 1
BITMAP
d8
50
50
30
20
ENDCHAR
STARTCHAR W
ENCODING 87
SWIDTH 635 0
DWIDTH 6 0
BBX 5 5 0 1
BITMAP
d8
a8
a8
50
50
ENDCHAR
STARTCHAR X
ENCODING 88
SWIDTH 635 0
DWIDTH 6 0
BBX 5 5 0 1
BITMAP
d8
50
20
50
d8
ENDCHAR
STARTCHAR Y
ENCODING 89
SWIDTH 635 0
DWIDTH 6 0
BBX 5 5 0 1
BITMAP
d8
50
30
30
70
ENDCHAR
STARTCHAR Z
ENCODING 90
SWIDTH 635 0
DWIDTH 6 0
BBX 5 5 0 1
BITMAP
f8
d0
20
58
78
ENDCHAR
STARTCHAR bracketleft
ENCODING 91
SWIDTH 635 0
DWIDTH 6 0
BBX 2 7 2 0
BITMAP
c0
c0
c0
c0
c0
c0
c0
ENDCHAR
STARTCHAR backslash
ENCODING 92
SWIDTH 635 0
DWIDTH 6 0
BBX 4 8 1 0
BITMAP
80
40
40
40
20
20
10
10
ENDCHAR
STARTCHAR bracketright
ENCODING 93
SWIDTH 635 0
DWIDTH 6 0
BBX 2 7 1 0
BITMAP
c0
c0
c0
c0
c0
c0
c0
ENDCHAR
STARTCHAR asciicircum
ENCODING 94
SWIDTH 635 0
DWIDTH 6 0
BBX 4 4 1 2
BITMAP
60
60
90
90
ENDCHAR
STARTCHAR underscore
ENCODING 95
SWIDTH 635 0
DWIDTH 6 0
BBX 6 1 0 0
BITMAP
fc
ENDCHAR
STARTCHAR quoteleft
ENCODING 96
SWIDTH 635 0
DWIDTH 6 0
BBX 2 2 1 4
BITMAP
40
80
ENDCHAR
STARTCHAR a
ENCODING 97
SWIDTH 635 0
DWIDTH 6 0
BBX 5 4 0 1
BITMAP
f8
78
d8
78
ENDCHAR
STARTCHAR b
ENCODING 98
SWIDTH 635 0
DWIDTH 6 0
BBX 6 6 0 1
BITMAP
c0
40
78
cc
cc
f8
ENDCHAR
STARTCHAR c
ENCODING 99
SWIDTH 635 0
DWIDTH 6 0
BBX 5 4 0 1
BITMAP
70
c8
c0
70
ENDCHAR
STARTCHAR d
ENCODING 100
SWIDTH 635 0
DWIDTH 6 0
BBX 5 6 0 1
BITMAP
38
08
78
c8
c8
78
ENDCHAR
STARTCHAR e
ENCODING 101
SWIDTH 635 0
DWIDTH 6 0
BBX 6 4 0 1
BITMAP
78
fc
c0
78
ENDCHAR
STARTCHAR f
ENCODING 102
SWIDTH 635 0
DWIDTH 6 0
BBX 4 6 1 1
BITMAP
60
c0
e0
c0
c0
e0
ENDCHAR
STARTCHAR g
ENCODING 103
SWIDTH 635 0
DWIDTH 6 0
BBX 5 5 0 0
BITMAP
78
d8
d8
78
78
ENDCHAR
STARTCHAR h
ENCODING 104
SWIDTH 635 0
DWIDTH 6 0
BBX 5 6 0 1
BITMAP
c0
40
70
d8
d8
d8
ENDCHAR
STARTCHAR i
ENCODING 105
SWIDTH 635 0
DWIDTH 6 0
BBX 4 6 1 1
BITMAP
40
00
e0
60
60
f0
ENDCHAR
STARTCHAR j
ENCODING 106
SWIDTH 635 0
DWIDTH 6 0
BBX 4 7 0 0
BITMAP
20
00
70
30
30
30
60
ENDCHAR
STARTCHAR k
ENCODING 107
SWIDTH 635 0
DWIDTH 6 0
BBX 5 6 0 1
BITMAP
c0
40
58
e0
d0
d8
ENDCHAR
STARTCHAR l
ENCODING 108
SWIDTH 635 0
DWIDTH 6 0
BBX 4 6 1 1
BITMAP
60
20
20
60
60
f0
ENDCHAR
STARTCHAR m
ENCODING 109
SWIDTH 635 0
DWIDTH 6 0
BBX 5 4 0 1
BITMAP
f8
f8
f8
f8
ENDCHAR
STARTCHAR n
ENCODING 110
SWIDTH 635 0
DWIDTH 6 0
BBX 5 4 0 1
BITMAP
f0
d8
d8
d8
ENDCHAR
STARTCHAR o
ENCODING 111
SWIDTH 635 0
DWIDTH 6 0
BBX 6 4 0 1
BITMAP
78
cc
cc
78
ENDCHAR
STARTCHAR p
ENCODING 112
SWIDTH 635 0
DWIDTH 6 0
BBX 6 5 0 0
BITMAP
f8
cc
cc
f8
e0
ENDCHAR
STARTCHAR q
ENCODING 113
SWIDTH 635 0
DWIDTH 6 0
BBX 5 5 0 0
BITMAP
78
d8
d8
78
18
ENDCHAR
STARTCHAR r
ENCODING 114
SWIDTH 635 0
DWIDTH 6 0
BBX 4 4 1 1
BITMAP
f0
c0
c0
e0
ENDCHAR
STARTCHAR s
ENCODING 115
SWIDTH 635 0
DWIDTH 6 0
BBX 5 4 0 1
BITMAP
f0
e0
58
f0
ENDCHAR
STARTCHAR t
ENCODING 116
SWIDTH 635 0
DWIDTH 6 0
BBX 4 5 1 1
BITMAP
c0
e0
c0
c0
f0
ENDCHAR
STARTCHAR u
ENCODING 117
SWIDTH 635 0
DWIDTH 6 0
BBX 5 4 0 1
BITMAP
d8
d8
d8
f8
ENDCHAR
STARTCHAR v
ENCODING 118
SWIDTH 635 0
DWIDTH 6 0
BBX 5 4 0 1
BITMAP
d8
50
50
20
ENDCHAR
STARTCHAR w
ENCODING 119
SWIDTH 635 0
DWIDTH 6 0
BBX 5 4 0 1
BITMAP
d8
70
70
50
ENDCHAR
STARTCHAR x
ENCODING 120
SWIDTH 635 0
DWIDTH 6 0
BBX 5 4 0 1
BITMAP
d8
60
50
d8
ENDCHAR
STARTCHAR y
ENCODING 121
SWIDTH 635 0
DWIDTH 6 0
BBX 5 5 0 0
BITMAP
d8
50
30
20
e0
ENDCHAR
STARTCHAR z
ENCODING 122
SWIDTH 635 0
DWIDTH 6 0
BBX 5 4 0 1
BITMAP
f8
10
38
78
ENDCHAR
STARTCHAR braceleft
ENCODING 123
SWIDTH 635 0
DWIDTH 6 0
BBX 2 7 2 0
BITMAP
c0
c0
c0
c0
c0
c0
40
ENDCHAR
STARTCHAR bar
ENCODING 124
SWIDTH 635 0
DWIDTH 6 0
BBX 2 8 2 -1
BITMAP
c0
c0
c0
c0
c0
c0
c0
c0
ENDCHAR
STARTCHAR braceright
ENCODING 125
SWIDTH 635 0
DWIDTH 6 0
BBX 3 7 1 0
BITMAP
c0
60
c0
c0
e0
60
c0
ENDCHAR
STARTCHAR asciitilde
ENCODING 126
SWIDTH 635 0
DWIDTH 6 0
BBX 4 2 1 2
BITMAP
f0
90
ENDCHAR
STARTCHAR space
ENCODING 160
SWIDTH 635 0
DWIDTH 6 0
BBX 0 0 0 1
BITMAP
ENDCHAR
STARTCHAR Aogonek
ENCODING 161
SWIDTH 635 0
DWIDTH 6 0
BBX 5 6 0 0
BITMAP
60
50
50
70
d8
18
ENDCHAR
STARTCHAR breve
ENCODING 162
SWIDTH 635 0
DWIDTH 6 0
BBX 3 2 1 5
BITMAP
a0
40
ENDCHAR
STARTCHAR Lslash
ENCODING 163
SWIDTH 635 0
DWIDTH 6 0
BBX 6 5 0 1
BITMAP
e0
70
68
28
fc
ENDCHAR
STARTCHAR currency
ENCODING 164
SWIDTH 635 0
DWIDTH 6 0
BBX 6 5 0 1
BITMAP
44
f8
d8
f8
88
ENDCHAR
STARTCHAR Lcaron
ENCODING 165
SWIDTH 635 0
DWIDTH 6 0
BBX 6 6 0 1
BITMAP
08
e0
60
68
68
fc
ENDCHAR
STARTCHAR Sacute
ENCODING 166
SWIDTH 635 0
DWIDTH 6 0
BBX 6 7 0 1
BITMAP
20
00
7c
d8
78
d8
f0
ENDCHAR
STARTCHAR section
ENCODING 167
SWIDTH 635 0
DWIDTH 6 0
BBX 5 6 0 0
BITMAP
78
e0
d8
78
d8
f8
ENDCHAR
STARTCHAR dieresis
ENCODING 168
SWIDTH 635 0
DWIDTH 6 0
BBX 2 1 1 6
BITMAP
c0
ENDCHAR
STARTCHAR Scaron
ENCODING 169
SWIDTH 635 0
DWIDTH 6 0
BBX 6 7 0 1
BITMAP
30
00
7c
d8
78
d8
f0
ENDCHAR
STARTCHAR Scedilla
ENCODING 170
SWIDTH 635 0
DWIDTH 6 0
BBX 6 7 0 -1
BITMAP
7c
d8
78
d8
f8
30
30
ENDCHAR
STARTCHAR Tcaron
ENCODING 171
SWIDTH 635 0
DWIDTH 6 0
BBX 5 7 0 1
BITMAP
30
00
f8
e8
60
60
70
ENDCHAR
STARTCHAR Zacute
ENCODING 172
SWIDTH 635 0
DWIDTH 6 0
BBX 5 7 0 1
BITMAP
20
00
f8
d0
20
58
78
ENDCHAR
STARTCHAR hyphen
ENCODING 173
SWIDTH 635 0
DWIDTH 6 0
BBX 2 1 2 3
BITMAP
c0
ENDCHAR
STARTCHAR Zcaron
ENCODING 174
SWIDTH 635 0
DWIDTH 6 0
BBX 5 7 0 1
BITMAP
30
00
f8
d0
20
58
78
ENDCHAR
STARTCHAR Zdotaccent
ENCODING 175
SWIDTH 635 0
DWIDTH 6 0
BBX 5 7 0 1
BITMAP
30
00
f8
d0
20
58
78
ENDCHAR
STARTCHAR degree
ENCODING 176
SWIDTH 635 0
DWIDTH 6 0
BBX 4 3 1 4
BITMAP
60
f0
e0
ENDCHAR
STARTCHAR aogonek
ENCODING 177
SWIDTH 635 0
DWIDTH 6 0
BBX 5 5 0 0
BITMAP
f8
78
d8
78
38
ENDCHAR
STARTCHAR ogonek
ENCODING 178
SWIDTH 635 0
DWIDTH 6 0
BBX 3 1 1 0
BITMAP
c0
ENDCHAR
STARTCHAR lslash
ENCODING 179
SWIDTH 635 0
DWIDTH 6 0
BBX 4 6 1 1
BITMAP
60
20
60
e0
60
f0
ENDCHAR
STARTCHAR acute
ENCODING 180
SWIDTH 635 0
DWIDTH 6 0
BBX 2 1 2 6
BITMAP
80
ENDCHAR
STARTCHAR lcaron
ENCODING 181
SWIDTH 635 0
DWIDTH 6 0
BBX 4 6 1 1
BITMAP
70
20
20
60
60
f0
ENDCHAR
STARTCHAR sacute
ENCODING 182
SWIDTH 635 0
DWIDTH 6 0
BBX 5 6 0 1
BITMAP
20
00
f0
e0
58
f0
ENDCHAR
STARTCHAR caron
ENCODING 183
SWIDTH 635 0
DWIDTH 6 0
BBX 2 2 2 5
BITMAP
c0
40
ENDCHAR
STARTCHAR cedilla
ENCODING 184
SWIDTH 635 0
DWIDTH 6 0
BBX 2 3 2 -1
BITMAP
c0
40
c0
ENDCHAR
STARTCHAR scaron
ENCODING 185
SWIDTH 635 0
DWIDTH 6 0
BBX 5 6 0 1
BITMAP
30
10
f0
e0
58
f0
ENDCHAR
STARTCHAR scedilla
ENCODING 186
SWIDTH 635 0
DWIDTH 6 0
BBX 5 6 0 -1
BITMAP
f0
e0
38
f8
30
30
ENDCHAR
STARTCHAR tcaron
ENCODING 187
SWIDTH 635 0
DWIDTH 6 0
BBX 4 6 1 1
BITMAP
20
c0
e0
c0
c0
f0
ENDCHAR
STARTCHAR zacute
ENCODING 188
SWIDTH 635 0
DWIDTH 6 0
BBX 5 6 0 1
BITMAP
20
00
f8
10
38
78
ENDCHAR
STARTCHAR hungarumlaut
ENCODING 189
SWIDTH 635 0
DWIDTH 6 0
BBX 3 1 1 6
BITMAP
60
ENDCHAR
STARTCHAR zcaron
ENCODING 190
SWIDTH 635 0
DWIDTH 6 0
BBX 5 6 0 1
BITMAP
30
10
f8
10
38
78
ENDCHAR
STARTCHAR zdotaccent
ENCODING 191
SWIDTH 635 0
DWIDTH 6 0
BBX 5 6 0 1
BITMAP
30
00
f8
10
38
78
ENDCHAR
STARTCHAR Racute
ENCODING 192
SWIDTH 635 0
DWIDTH 6 0
BBX 5 7 0 1
BITMAP
20
00
f8
d8
f0
d0
f8
ENDCHAR
STARTCHAR Aacute
ENCODING 193
SWIDTH 635 0
DWIDTH 6 0
BBX 5 7 0 1
BITMAP
20
00
60
50
50
70
d8
ENDCHAR
STARTCHAR Acircumflex
ENCODING 194
SWIDTH 635 0
DWIDTH 6 0
BBX 5 7 0 1
BITMAP
30
00
60
50
50
70
d8
ENDCHAR
STARTCHAR Abreve
ENCODING 195
SWIDTH 635 0
DWIDTH 6 0
BBX 5 7 0 1
BITMAP
70
00
60
50
50
70
d8
ENDCHAR
STARTCHAR Adieresis
ENCODING 196
SWIDTH 635 0
DWIDTH 6 0
BBX 5 7 0 1
BITMAP
60
00
60
50
50
70
d8
ENDCHAR
STARTCHAR Lacute
ENCODING 197
SWIDTH 635 0
DWIDTH 6 0
BBX 6 7 0 1
BITMAP
40
00
e0
60
68
68
fc
ENDCHAR
STARTCHAR Cacute
ENCODING 198
SWIDTH 635 0
DWIDTH 6 0
BBX 6 7 0 1
BITMAP
20
00
78
c8
c0
c4
78
ENDCHAR
STARTCHAR Ccedilla
ENCODING 199
SWIDTH 635 0
DWIDTH 6 0
BBX 6 7 0 -1
BITMAP
78
c8
c0
c4
78
18
30
ENDCHAR
STARTCHAR Ccaron
ENCODING 200
SWIDTH 635 0
DWIDTH 6 0
BBX 6 7 0 1
BITMAP
30
00
78
c8
c0
c4
78
ENDCHAR
STARTCHAR Eacute
ENCODING 201
SWIDTH 635 0
DWIDTH 6 0
BBX 6 7 0 1
BITMAP
20
00
fc
70
70
7c
fc
ENDCHAR
STARTCHAR Eogonek
ENCODING 202
SWIDTH 635 0
DWIDTH 6 0
BBX 6 6 0 0
BITMAP
fc
70
70
7c
fc
1c
ENDCHAR
STARTCHAR Edieresis
ENCODING 203
SWIDTH 635 0
DWIDTH 6 0
BBX 6 7 0 1
BITMAP
60
00
fc
70
70
7c
fc
ENDCHAR
STARTCHAR Ecaron
ENCODING 204
SWIDTH 635 0
DWIDTH 6 0
BBX 6 7 0 1
BITMAP
30
00
fc
70
70
7c
fc
ENDCHAR
STARTCHAR Iacute
ENCODING 205
SWIDTH 635 0
DWIDTH 6 0
BBX 4 7 1 1
BITMAP
40
00
f0
60
60
60
f0
ENDCHAR
STARTCHAR Icircumflex
ENCODING 206
SWIDTH 635 0
DWIDTH 6 0
BBX 4 7 1 1
BITMAP
60
00
f0
60
60
60
f0
ENDCHAR
STARTCHAR Dcaron
ENCODING 207
SWIDTH 635 0
DWIDTH 6 0
BBX 6 7 0 1
BITMAP
30
00
f8
cc
cc
cc
f8
ENDCHAR
STARTCHAR Eth
ENCODING 208
SWIDTH 635 0
DWIDTH 6 0
BBX 6 5 0 1
BITMAP
f8
cc
ec
cc
f8
ENDCHAR
STARTCHAR Nacute
ENCODING 209
SWIDTH 635 0
DWIDTH 6 0
BBX 5 7 0 1
BITMAP
20
00
d8
f8
f8
f8
d8
ENDCHAR
STARTCHAR Ncaron
ENCODING 210
SWIDTH 635 0
DWIDTH 6 0
BBX 5 7 0 1
BITMAP
30
00
d8
f8
f8
f8
d8
ENDCHAR
STARTCHAR Oacute
ENCODING 211
SWIDTH 635 0
DWIDTH 6 0
BBX 6 7 0 1
BITMAP
20
00
78
cc
cc
cc
70
ENDCHAR
STARTCHAR Ocircumflex
ENCODING 212
SWIDTH 635 0
DWIDTH 6 0
BBX 6 7 0 1
BITMAP
30
00
78
cc
cc
cc
70
ENDCHAR
STARTCHAR Ohungarumlaut
ENCODING 213
SWIDTH 635 0
DWIDTH 6 0
BBX 6 7 0 1
BITMAP
30
00
78
cc
cc
cc
70
ENDCHAR
STARTCHAR Odieresis
ENCODING 214
SWIDTH 635 0
DWIDTH 6 0
BBX 6 7 0 1
BITMAP
60
00
78
cc
cc
cc
70
ENDCHAR
STARTCHAR multiply
ENCODING 215
SWIDTH 635 0
DWIDTH 6 0
BBX 4 4 1 2
BITMAP
50
70
60
90
ENDCHAR
STARTCHAR Rcaron
ENCODING 216
SWIDTH 635 0
DWIDTH 6 0
BBX 5 7 0 1
BITMAP
30
00
f8
d8
f0
d0
f8
ENDCHAR
STARTCHAR Uring
ENCODING 217
SWIDTH 635 0
DWIDTH 6 0
BBX 5 8 0 1
BITMAP
20
70
00
d8
d8
d8
d8
70
ENDCHAR
STARTCHAR Uacute
ENCODING 218
SWIDTH 635 0
DWIDTH 6 0
BBX 5 7 0 1
BITMAP
20
00
d8
d8
d8
d8
70
ENDCHAR
STARTCHAR Uhungarumlaut
ENCODING 219
SWIDTH 635 0
DWIDTH 6 0
BBX 5 7 0 1
BITMAP
30
00
d8
d8
d8
d8
70
ENDCHAR
STARTCHAR Udieresis
ENCODING 220
SWIDTH 635 0
DWIDTH 6 0
BBX 5 7 0 1
BITMAP
60
00
d8
d8
d8
d8
70
ENDCHAR
STARTCHAR Yacute
ENCODING 221
SWIDTH 635 0
DWIDTH 6 0
BBX 5 7 0 1
BITMAP
20
00
d8
50
30
30
70
ENDCHAR
STARTCHAR Tcedilla
ENCODING 222
SWIDTH 635 0
DWIDTH 6 0
BBX 6 7 0 -1
BITMAP
fc
b8
30
30
78
30
30
ENDCHAR
STARTCHAR germandbls
ENCODING 223
SWIDTH 635 0
DWIDTH 6 0
BBX 5 6 0 1
BITMAP
30
78
70
78
78
f8
ENDCHAR
STARTCHAR racute
ENCODING 224
SWIDTH 635 0
DWIDTH 6 0
BBX 4 6 1 1
BITMAP
40
00
f0
c0
c0
e0
ENDCHAR
STARTCHAR aacute
ENCODING 225
SWIDTH 635 0
DWIDTH 6 0
BBX 5 6 0 1
BITMAP
20
00
f8
78
d8
78
ENDCHAR
STARTCHAR acircumflex
ENCODING 226
SWIDTH 635 0
DWIDTH 6 0
BBX 5 6 0 1
BITMAP
30
00
f8
78
d8
78
ENDCHAR
STARTCHAR abreve
ENCODING 227
SWIDTH 635 0
DWIDTH 6 0
BBX 5 6 0 1
BITMAP
50
20
f8
78
d8
78
ENDCHAR
STARTCHAR adieresis
ENCODING 228
SWIDTH 635 0
DWIDTH 6 0
BBX 5 6 0 1
BITMAP
60
00
f8
78
d8
78
ENDCHAR
STARTCHAR lacute
ENCODING 229
SWIDTH 635 0
DWIDTH 6 0
BBX 4 8 1 1
BITMAP
40
00
60
20
20
60
60
f0
ENDCHAR
STARTCHAR cacute
ENCODING 230
SWIDTH 635 0
DWIDTH 6 0
BBX 5 6 0 1
BITMAP
20
00
70
c8
c0
70
ENDCHAR
STARTCHAR ccedilla
ENCODING 231
SWIDTH 635 0
DWIDTH 6 0
BBX 5 6 0 -1
BITMAP
78
c8
c0
78
30
30
ENDCHAR
STARTCHAR ccaron
ENCODING 232
SWIDTH 635 0
DWIDTH 6 0
BBX 5 6 0 1
BITMAP
30
10
70
c8
c0
70
ENDCHAR
STARTCHAR eacute
ENCODING 233
SWIDTH 635 0
DWIDTH 6 0
BBX 6 6 0 1
BITMAP
20
00
78
fc
c0
78
ENDCHAR
STARTCHAR eogonek
ENCODING 234
SWIDTH 635 0
DWIDTH 6 0
BBX 4 5 1 0
BITMAP
70
f0
80
f0
60
ENDCHAR
STARTCHAR edieresis
ENCODING 235
SWIDTH 635 0
DWIDTH 6 0
BBX 6 6 0 1
BITMAP
60
00
78
fc
c0
78
ENDCHAR
STARTCHAR ecaron
ENCODING 236
SWIDTH 635 0
DWIDTH 6 0
BBX 6 6 0 1
BITMAP
30
10
78
fc
c0
78
ENDCHAR
STARTCHAR iacute
ENCODING 237
SWIDTH 635 0
DWIDTH 6 0
BBX 4 6 1 1
BITMAP
40
00
e0
60
60
f0
ENDCHAR
STARTCHAR icircumflex
ENCODING 238
SWIDTH 635 0
DWIDTH 6 0
BBX 4 6 1 1
BITMAP
60
00
e0
60
60
f0
ENDCHAR
STARTCHAR dcaron
ENCODING 239
SWIDTH 635 0
DWIDTH 6 0
BBX 7 6 0 1
BITMAP
3c
08
78
c8
c8
78
ENDCHAR
STARTCHAR dbar
ENCODING 240
SWIDTH 635 0
DWIDTH 6 0
BBX 5 6 0 1
BITMAP
38
38
78
c8
c8
78
ENDCHAR
STARTCHAR nacute
ENCODING 241
SWIDTH 635 0
DWIDTH 6 0
BBX 5 6 0 1
BITMAP
20
00
f0
d8
d8
d8
ENDCHAR
STARTCHAR ncaron
ENCODING 242
SWIDTH 635 0
DWIDTH 6 0
BBX 5 6 0 1
BITMAP
30
10
f0
d8
d8
d8
ENDCHAR
STARTCHAR oacute
ENCODING 243
SWIDTH 635 0
DWIDTH 6 0
BBX 6 6 0 1
BITMAP
20
00
78
cc
cc
78
ENDCHAR
STARTCHAR ocircumflex
ENCODING 244
SWIDTH 635 0
DWIDTH 6 0
BBX 6 6 0 1
BITMAP
30
00
78
cc
cc
78
ENDCHAR
STARTCHAR ohungarumlaut
ENCODING 245
SWIDTH 635 0
DWIDTH 6 0
BBX 6 6 0 1
BITMAP
30
00
78
cc
cc
78
ENDCHAR
STARTCHAR odieresis
ENCODING 246
SWIDTH 635 0
DWIDTH 6 0
BBX 6 6 0 1
BITMAP
60
00
78
cc
cc
78
ENDCHAR
STARTCHAR divide
ENCODING 247
SWIDTH 635 0
DWIDTH 6 0
BBX 5 4 0 2
BITMAP
10
00
f8
10
ENDCHAR
STARTCHAR rcaron
ENCODING 248
SWIDTH 635 0
DWIDTH 6 0
BBX 4 6 1 1
BITMAP
60
20
f0
c0
c0
e0
ENDCHAR
STARTCHAR uring
ENCODING 249
SWIDTH 635 0
DWIDTH 6 0
BBX 5 6 0 1
BITMAP
70
20
d8
d8
d8
f8
ENDCHAR
STARTCHAR uacute
ENCODING 250
SWIDTH 635 0
DWIDTH 6 0
BBX 5 6 0 1
BITMAP
20
00
d8
d8
d8
f8
ENDCHAR
STARTCHAR uhungarumlaut
ENCODING 251
SWIDTH 635 0
DWIDTH 6 0
BBX 5 6 0 1
BITMAP
30
00
d8
d8
d8
f8
ENDCHAR
STARTCHAR udieresis
ENCODING 252
SWIDTH 635 0
DWIDTH 6 0
BBX 5 6 0 1
BITMAP
60
00
d8
d8
d8
f8
ENDCHAR
STARTCHAR yacute
ENCODING 253
SWIDTH 635 0
DWIDTH 6 0
BBX 5 7 0 0
BITMAP
20
00
d8
50
30
20
e0
ENDCHAR
STARTCHAR tcedilla
ENCODING 254
SWIDTH 635 0
DWIDTH 6 0
BBX 4 7 1 -1
BITMAP
c0
e0
c0
c0
f0
60
60
ENDCHAR
STARTCHAR dotaccent
ENCODING 255
SWIDTH 635 0
DWIDTH 6 0
BBX 2 1 2 6
BITMAP
c0
ENDCHAR
ENDFONT
